<svg xmlns="http://www.w3.org/2000/svg" width="520" height="1040" viewBox="0 0 520 1040"><rect fill="#f9fafb" width="520" height="1040"/><rect fill="#fff" x="10" y="10" width="500" height="1020" rx="12" filter="drop-shadow(0 2px 4px rgba(0,0,0,0.05))"/><text x="260" y="50" fill="#111827" font-size="22" font-weight="800" text-anchor="middle">Pgm 索引评测</text><text x="260" y="75" fill="#6b7280" font-size="13" font-weight="500" text-anchor="middle">ε=64, 1M 元素</text><text x="260" y="100" fill="#111827" font-size="16" font-weight="700" text-anchor="middle">吞吐量 (M/s)</text><path stroke="#e5e7eb" d="M70 300h420"/><text x="60" y="304" fill="#9ca3af" font-size="11" text-anchor="end">0.0</text><path stroke="#e5e7eb" d="M70 255h420"/><text x="60" y="259" fill="#9ca3af" font-size="11" text-anchor="end">16.2</text><path stroke="#e5e7eb" d="M70 210h420"/><text x="60" y="214" fill="#9ca3af" font-size="11" text-anchor="end">32.4</text><path stroke="#e5e7eb" d="M70 165h420"/><text x="60" y="169" fill="#9ca3af" font-size="11" text-anchor="end">48.6</text><path stroke="#e5e7eb" d="M70 120h420"/><text x="60" y="124" fill="#9ca3af" font-size="11" text-anchor="end">64.8</text><text x="18" y="210" fill="#6b7280" font-size="12" font-weight="500" text-anchor="middle" transform="rotate(-90 18 210)">M/s</text><rect fill="#ff5722" x="150" y="139.2857142857143" width="50" height="160.7142857142857"/><text x="175" y="133.2857142857143" fill="#374151" font-size="12" font-weight="600" text-anchor="middle">57.90</text><text x="175" y="316" fill="#4b5563" font-size="11" font-weight="500" text-anchor="end" transform="rotate(-40 175 316)">jdb_pgm</text><text x="175" y="332" fill="#9ca3af" font-size="10" text-anchor="end" transform="rotate(-40 175 332)">ε=64</text><path fill="#ef4444" d="M175 98.2857142857143l2.64 8.399999999999999h8.399999999999999l-6.84 5.04l2.64 8.399999999999999l-6.84 -5.04l-6.84 5.04l2.64 -8.399999999999999l-6.84 -5.04h8.399999999999999z"/><rect fill="#91cc75" x="220" y="176.82969158073365" width="50" height="123.17030841926635"/><text x="245" y="170.82969158073365" fill="#374151" font-size="12" font-weight="600" text-anchor="middle">44.37</text><text x="245" y="316" fill="#4b5563" font-size="11" font-weight="500" text-anchor="end" transform="rotate(-40 245 316)">pgm_index</text><text x="245" y="332" fill="#9ca3af" font-size="10" text-anchor="end" transform="rotate(-40 245 332)">ε=64</text><rect fill="#fac858" x="290" y="186.54829280637" width="50" height="113.45170719362999"/><text x="315" y="180.54829280637" fill="#374151" font-size="12" font-weight="600" text-anchor="middle">40.87</text><text x="315" y="316" fill="#4b5563" font-size="11" font-weight="500" text-anchor="end" transform="rotate(-40 315 316)">二分查找</text><rect fill="#8d6e63" x="360" y="258.61309240647216" width="50" height="41.38690759352783"/><text x="385" y="252.61309240647216" fill="#374151" font-size="12" font-weight="600" text-anchor="middle">14.91</text><text x="385" y="316" fill="#4b5563" font-size="11" font-weight="500" text-anchor="end" transform="rotate(-40 385 316)">BTreeMap</text><text x="260" y="410" fill="#111827" font-size="16" font-weight="700" text-anchor="middle">内存 (MB)</text><path stroke="#e5e7eb" d="M70 610h420"/><text x="60" y="614" fill="#9ca3af" font-size="11" text-anchor="end">0.0</text><path stroke="#e5e7eb" d="M70 565h420"/><text x="60" y="569" fill="#9ca3af" font-size="11" text-anchor="end">4.7</text><path stroke="#e5e7eb" d="M70 520h420"/><text x="60" y="524" fill="#9ca3af" font-size="11" text-anchor="end">9.4</text><path stroke="#e5e7eb" d="M70 475h420"/><text x="60" y="479" fill="#9ca3af" font-size="11" text-anchor="end">14.1</text><path stroke="#e5e7eb" d="M70 430h420"/><text x="60" y="434" fill="#9ca3af" font-size="11" text-anchor="end">18.9</text><text x="18" y="520" fill="#6b7280" font-size="12" font-weight="500" text-anchor="middle" transform="rotate(-90 18 520)">MB</text><text x="175" y="604" fill="#374151" font-size="12" font-weight="600" text-anchor="middle">0.00</text><text x="175" y="626" fill="#4b5563" font-size="11" font-weight="500" text-anchor="end" transform="rotate(-40 175 626)">二分查找</text><path fill="#ef4444" d="M175 569l2.64 8.399999999999999h8.399999999999999l-6.84 5.04l2.64 8.399999999999999l-6.84 -5.04l-6.84 5.04l2.64 -8.399999999999999l-6.84 -5.04h8.399999999999999z"/><rect fill="#ff5722" x="220" y="609.9495700365184" width="50" height="0.05042996348166687"/><text x="245" y="603.9495700365184" fill="#374151" font-size="12" font-weight="600" text-anchor="middle">0.01</text><text x="245" y="626" fill="#4b5563" font-size="11" font-weight="500" text-anchor="end" transform="rotate(-40 245 626)">jdb_pgm</text><text x="245" y="642" fill="#9ca3af" font-size="10" text-anchor="end" transform="rotate(-40 245 642)">ε=64</text><rect fill="#91cc75" x="290" y="603.1732029940955" width="50" height="6.826797005904492"/><text x="315" y="597.1732029940955" fill="#374151" font-size="12" font-weight="600" text-anchor="middle">0.72</text><text x="315" y="626" fill="#4b5563" font-size="11" font-weight="500" text-anchor="end" transform="rotate(-40 315 626)">pgm_index</text><text x="315" y="642" fill="#9ca3af" font-size="10" text-anchor="end" transform="rotate(-40 315 642)">ε=64</text><rect fill="#8d6e63" x="360" y="449.28571428571433" width="50" height="160.7142857142857"/><text x="385" y="443.28571428571433" fill="#374151" font-size="12" font-weight="600" text-anchor="middle">16.84</text><text x="385" y="626" fill="#4b5563" font-size="11" font-weight="500" text-anchor="end" transform="rotate(-40 385 626)">BTreeMap</text><text x="260" y="720" fill="#111827" font-size="16" font-weight="700" text-anchor="middle">平均误差</text><path stroke="#e5e7eb" d="M70 920h420"/><text x="60" y="924" fill="#9ca3af" font-size="11" text-anchor="end">0.0</text><path stroke="#e5e7eb" d="M70 875h420"/><text x="60" y="879" fill="#9ca3af" font-size="11" text-anchor="end">17.8</text><path stroke="#e5e7eb" d="M70 830h420"/><text x="60" y="834" fill="#9ca3af" font-size="11" text-anchor="end">35.6</text><path stroke="#e5e7eb" d="M70 785h420"/><text x="60" y="789" fill="#9ca3af" font-size="11" text-anchor="end">53.3</text><path stroke="#e5e7eb" d="M70 740h420"/><text x="60" y="744" fill="#9ca3af" font-size="11" text-anchor="end">71.1</text><text x="18" y="830" fill="#6b7280" font-size="12" font-weight="500" text-anchor="middle" transform="rotate(-90 18 830)">误差</text><rect fill="#ff5722" x="220" y="864.6437993543414" width="50" height="55.35620064565867"/><text x="245" y="858.6437993543414" fill="#374151" font-size="12" font-weight="600" text-anchor="middle">21.87</text><text x="245" y="936" fill="#4b5563" font-size="11" font-weight="500" text-anchor="end" transform="rotate(-40 245 936)">jdb_pgm</text><text x="245" y="952" fill="#9ca3af" font-size="10" text-anchor="end" transform="rotate(-40 245 952)">ε=64</text><path fill="#ef4444" d="M245 823.6437993543414l2.64 8.399999999999999h8.399999999999999l-6.84 5.04l2.64 8.399999999999999l-6.84 -5.04l-6.84 5.04l2.64 -8.399999999999999l-6.84 -5.04h8.399999999999999z"/><rect fill="#91cc75" x="290" y="759.2857142857143" width="50" height="160.7142857142857"/><text x="315" y="753.2857142857143" fill="#374151" font-size="12" font-weight="600" text-anchor="middle">63.50</text><text x="315" y="936" fill="#4b5563" font-size="11" font-weight="500" text-anchor="end" transform="rotate(-40 315 936)">pgm_index</text><text x="315" y="952" fill="#9ca3af" font-size="10" text-anchor="end" transform="rotate(-40 315 952)">ε=64</text><rect fill="#ff5722" x="120" y="990" width="14" height="14" rx="2"/><text x="140" y="1001" fill="#6b7280" font-size="12">jdb_pgm</text><rect fill="#91cc75" x="260" y="990" width="14" height="14" rx="2"/><text x="280" y="1001" fill="#6b7280" font-size="12">pgm_index</text><rect fill="#fac858" x="120" y="1014" width="14" height="14" rx="2"/><text x="140" y="1025" fill="#6b7280" font-size="12">二分查找</text><rect fill="#8d6e63" x="260" y="1014" width="14" height="14" rx="2"/><text x="280" y="1025" fill="#6b7280" font-size="12">BTreeMap</text></svg>