<svg xmlns="http://www.w3.org/2000/svg" width="800" height="1000" font-family="monospace"><style>text { font-size: 14px; }</style><text x="10" y="20" font-weight="bold">KeyOffsets</text><text x="20" y="40">Build</text><text x="30" y="60" alignment-baseline="middle">Pc</text><rect x="100" y="50" width="269.88540257437825" height="10" fill="#4caf50" /><text x="379.88540257437825" y="60" alignment-baseline="middle">673.71 ms</text><text x="30" y="80" alignment-baseline="middle">Sucds</text><rect x="100" y="70" width="500" height="10" fill="#4caf50" /><text x="610" y="80" alignment-baseline="middle">1.25 s</text><text x="30" y="100" alignment-baseline="middle">Array</text><rect x="100" y="90" width="8.037440553501721" height="10" fill="#4caf50" /><text x="118.03744055350172" y="100" alignment-baseline="middle">20.06 ms</text><text x="20" y="130">RandomGet</text><text x="30" y="150" alignment-baseline="middle">Pc</text><rect x="100" y="140" width="390.3698088735513" height="10" fill="#4caf50" /><text x="500.3698088735513" y="150" alignment-baseline="middle">527.79 ms</text><text x="30" y="170" alignment-baseline="middle">Sucds</text><rect x="100" y="160" width="500" height="10" fill="#4caf50" /><text x="610" y="170" alignment-baseline="middle">676.02 ms</text><text x="30" y="190" alignment-baseline="middle">Array</text><rect x="100" y="180" width="437.7953835146158" height="10" fill="#4caf50" /><text x="547.7953835146159" y="190" alignment-baseline="middle">591.92 ms</text><text x="20" y="220">Iter</text><text x="30" y="240" alignment-baseline="middle">Pc</text><rect x="100" y="230" width="491.2117334627521" height="10" fill="#4caf50" /><text x="601.2117334627521" y="240" alignment-baseline="middle">178.91 ms</text><text x="30" y="260" alignment-baseline="middle">Sucds</text><rect x="100" y="250" width="500" height="10" fill="#4caf50" /><text x="610" y="260" alignment-baseline="middle">182.11 ms</text><text x="30" y="280" alignment-baseline="middle">Array</text><rect x="100" y="270" width="48.949477494231004" height="10" fill="#4caf50" /><text x="158.94947749423102" y="280" alignment-baseline="middle">17.83 ms</text><text x="20" y="310">RevIter</text><text x="30" y="330" alignment-baseline="middle">Pc</text><rect x="100" y="320" width="144.0630691758964" height="10" fill="#4caf50" /><text x="254.0630691758964" y="330" alignment-baseline="middle">260.81 ms</text><text x="30" y="350" alignment-baseline="middle">Sucds</text><rect x="100" y="340" width="500" height="10" fill="#4caf50" /><text x="610" y="350" alignment-baseline="middle">905.21 ms</text><text x="30" y="370" alignment-baseline="middle">Array</text><rect x="100" y="360" width="9.868080022529075" height="10" fill="#4caf50" /><text x="119.86808002252907" y="370" alignment-baseline="middle">17.87 ms</text><text x="10" y="420" font-weight="bold">DocIds</text><text x="20" y="440">Build</text><text x="30" y="460" alignment-baseline="middle">Pc</text><rect x="100" y="450" width="255.68862667828628" height="10" fill="#4caf50" /><text x="365.68862667828625" y="460" alignment-baseline="middle">670.00 ms</text><text x="30" y="480" alignment-baseline="middle">Sucds</text><rect x="100" y="470" width="500" height="10" fill="#4caf50" /><text x="610" y="480" alignment-baseline="middle">1.31 s</text><text x="30" y="500" alignment-baseline="middle">Array</text><rect x="100" y="490" width="7.630939583912682" height="10" fill="#4caf50" /><text x="117.63093958391268" y="500" alignment-baseline="middle">20.00 ms</text><text x="20" y="530">RandomGet</text><text x="30" y="550" alignment-baseline="middle">Pc</text><rect x="100" y="540" width="408.51974032395924" height="10" fill="#4caf50" /><text x="518.5197403239592" y="550" alignment-baseline="middle">584.29 ms</text><text x="30" y="570" alignment-baseline="middle">Sucds</text><rect x="100" y="560" width="500" height="10" fill="#4caf50" /><text x="610" y="570" alignment-baseline="middle">715.13 ms</text><text x="30" y="590" alignment-baseline="middle">Array</text><rect x="100" y="580" width="416.8336665066585" height="10" fill="#4caf50" /><text x="526.8336665066586" y="590" alignment-baseline="middle">596.18 ms</text><text x="20" y="620">Iter</text><text x="30" y="640" alignment-baseline="middle">Pc</text><rect x="100" y="630" width="493.29658510473894" height="10" fill="#4caf50" /><text x="603.2965851047389" y="640" alignment-baseline="middle">186.11 ms</text><text x="30" y="660" alignment-baseline="middle">Sucds</text><rect x="100" y="650" width="500" height="10" fill="#4caf50" /><text x="610" y="660" alignment-baseline="middle">188.64 ms</text><text x="30" y="680" alignment-baseline="middle">Array</text><rect x="100" y="670" width="47.31280761056539" height="10" fill="#4caf50" /><text x="157.3128076105654" y="680" alignment-baseline="middle">17.85 ms</text><text x="20" y="710">RevIter</text><text x="30" y="730" alignment-baseline="middle">Pc</text><rect x="100" y="720" width="148.24430261774015" height="10" fill="#4caf50" /><text x="258.2443026177401" y="730" alignment-baseline="middle">277.79 ms</text><text x="30" y="750" alignment-baseline="middle">Sucds</text><rect x="100" y="740" width="500" height="10" fill="#4caf50" /><text x="610" y="750" alignment-baseline="middle">936.93 ms</text><text x="30" y="770" alignment-baseline="middle">Array</text><rect x="100" y="760" width="9.636862626781546" height="10" fill="#4caf50" /><text x="119.63686262678155" y="770" alignment-baseline="middle">18.06 ms</text></svg>