<svg xmlns="http://www.w3.org/2000/svg" viewBox="0 0 500 260"><style>.l{font:500 12px Inter,sans-serif;fill:#64748b}.bl{font:500 11px Inter,sans-serif;fill:#94a3b8}.bar-bg{fill:#f1f5f9}</style><defs><linearGradient id="gP" x1="0%" x2="100%" y1="0%" y2="0%"><stop offset="0%" stop-color="#3b82f6"/><stop offset="100%" stop-color="#60a5fa"/></linearGradient><linearGradient id="gS" x1="0%" x2="100%" y1="0%" y2="0%"><stop offset="0%" stop-color="#10b981"/><stop offset="100%" stop-color="#34d399"/></linearGradient></defs><rect width="100%" height="100%" fill="#fff"/><text x="70" y="45" style="font:600 18px Inter,system-ui,sans-serif;fill:#1e293b">增量刷新耗时分解 (微秒)</text><text x="70" y="93" class="l">Full Refit (Baseline)</text><path d="M230 70h200v36H230z" class="bar-bg"/><path fill="#10b981" d="M230 70h54.545v36H230z"/><path fill="#f59e0b" d="M284.545 70H430v36H284.545z"/><text x="70" y="153" class="l">Smart Incr. (JDB)</text><path d="M230 130h200v36H230z" class="bar-bg"/><path fill="#3b82f6" d="M230 130h6.667v36H230z"/><path fill="#10b981" d="M236.667 130H270v36h-33.333z"/><path fill="#f59e0b" d="M270 130h160v36H270z"/><path fill="#3b82f6" d="M70 205h12v12H70z"/><text x="90" y="215" class="bl">净段复用</text><path fill="#10b981" d="M200 205h12v12h-12z"/><text x="220" y="215" class="bl">脏段重拟合</text><path fill="#f59e0b" d="M330 205h12v12h-12z"/><text x="350" y="215" class="bl">IO 写入</text></svg>