<svg xmlns="http://www.w3.org/2000/svg" viewBox="0 0 600 200"><rect width="100%" height="100%" fill="#fff"/><text x="40" y="30" style="font:600 18px Inter,system-ui,sans-serif;fill:#1e293b">LBA 访问热度分布 (100K 桶)</text><path fill="#3b82f6" d="M40 55h8.63v8.63H40z"/><path fill="#3b82f6" fill-opacity=".537" d="M40 64.63h8.63v8.63H40z"/><path fill="#3b82f6" fill-opacity=".196" d="M40 74.259h8.63v8.63H40z"/><path fill="#3b82f6" fill-opacity=".106" d="M40 83.889h8.63v8.63H40z"/><path fill="#3b82f6" fill-opacity=".121" d="M40 93.519h8.63v8.63H40z"/><path fill="#3b82f6" fill-opacity=".134" d="M40 103.148h8.63v8.63H40z"/><path fill="#3b82f6" fill-opacity=".119" d="M40 112.778h8.63v8.63H40z"/><path fill="#3b82f6" fill-opacity=".105" d="M40 122.407h8.63v8.63H40z"/><path fill="#3b82f6" fill-opacity=".111" d="M40 132.037h8.63v8.63H40z"/><path fill="#3b82f6" fill-opacity=".149" d="M40 141.667h8.63v8.63H40z"/><path fill="#3b82f6" fill-opacity=".16" d="M49.63 55h8.63v8.63h-8.63z"/><path fill="#3b82f6" fill-opacity=".12" d="M49.63 64.63h8.63v8.63h-8.63z"/><path fill="#3b82f6" fill-opacity=".111" d="M49.63 74.259h8.63v8.63h-8.63z"/><path fill="#3b82f6" fill-opacity=".101" d="M49.63 83.889h8.63v8.63h-8.63zm0 9.63h8.63v8.63h-8.63z"/><path fill="#3b82f6" fill-opacity=".1" d="M49.63 103.148h8.63v8.63h-8.63z"/><path fill="#3b82f6" fill-opacity=".101" d="M49.63 112.778h8.63v8.63h-8.63z"/><path fill="#3b82f6" fill-opacity=".102" d="M49.63 122.407h8.63v8.63h-8.63z"/><path fill="#3b82f6" fill-opacity=".101" d="M49.63 132.037h8.63v8.63h-8.63zm0 9.63h8.63v8.63h-8.63zM59.259 55h8.63v8.63h-8.63zm0 9.63h8.63v8.63h-8.63zm0 9.629h8.63v8.63h-8.63zm0 9.63h8.63v8.63h-8.63z"/><path fill="#3b82f6" fill-opacity=".1" d="M59.259 93.519h8.63v8.63h-8.63zm0 9.629h8.63v8.63h-8.63zm0 9.63h8.63v8.63h-8.63zm0 9.629h8.63v8.63h-8.63z"/><path fill="#3b82f6" fill-opacity=".135" d="M59.259 132.037h8.63v8.63h-8.63z"/><path fill="#3b82f6" fill-opacity=".1" d="M59.259 141.667h8.63v8.63h-8.63z"/><path fill="#3b82f6" fill-opacity=".102" d="M68.889 55h8.63v8.63h-8.63zm0 9.63h8.63v8.63h-8.63z"/><path fill="#3b82f6" fill-opacity=".117" d="M68.889 74.259h8.63v8.63h-8.63z"/><path fill="#3b82f6" fill-opacity=".125" d="M68.889 83.889h8.63v8.63h-8.63z"/><path fill="#3b82f6" fill-opacity=".111" d="M68.889 93.519h8.63v8.63h-8.63z"/><path fill="#3b82f6" fill-opacity=".114" d="M68.889 103.148h8.63v8.63h-8.63z"/><path fill="#3b82f6" fill-opacity=".13" d="M68.889 112.778h8.63v8.63h-8.63z"/><path fill="#3b82f6" fill-opacity=".103" d="M68.889 122.407h8.63v8.63h-8.63z"/><path fill="#3b82f6" fill-opacity=".115" d="M68.889 132.037h8.63v8.63h-8.63z"/><path fill="#3b82f6" fill-opacity=".103" d="M68.889 141.667h8.63v8.63h-8.63z"/><path fill="#3b82f6" fill-opacity=".102" d="M78.519 55h8.63v8.63h-8.63z"/><path fill="#3b82f6" fill-opacity=".128" d="M78.519 64.63h8.63v8.63h-8.63z"/><path fill="#3b82f6" fill-opacity=".139" d="M78.519 74.259h8.63v8.63h-8.63z"/><path fill="#3b82f6" fill-opacity=".101" d="M78.519 83.889h8.63v8.63h-8.63z"/><path fill="#3b82f6" fill-opacity=".106" d="M78.519 93.519h8.63v8.63h-8.63z"/><path fill="#3b82f6" fill-opacity=".101" d="M78.519 103.148h8.63v8.63h-8.63zm0 9.63h8.63v8.63h-8.63z"/><path fill="#3b82f6" fill-opacity=".114" d="M78.519 122.407h8.63v8.63h-8.63z"/><path fill="#3b82f6" fill-opacity=".115" d="M78.519 132.037h8.63v8.63h-8.63z"/><path fill="#3b82f6" fill-opacity=".126" d="M78.519 141.667h8.63v8.63h-8.63z"/><path fill="#3b82f6" fill-opacity=".129" d="M88.148 55h8.63v8.63h-8.63z"/><path fill="#3b82f6" fill-opacity=".119" d="M88.148 64.63h8.63v8.63h-8.63z"/><path fill="#3b82f6" fill-opacity=".117" d="M88.148 74.259h8.63v8.63h-8.63z"/><path fill="#3b82f6" fill-opacity=".114" d="M88.148 83.889h8.63v8.63h-8.63zm0 9.63h8.63v8.63h-8.63z"/><path fill="#3b82f6" fill-opacity=".118" d="M88.148 103.148h8.63v8.63h-8.63z"/><path fill="#3b82f6" fill-opacity=".115" d="M88.148 112.778h8.63v8.63h-8.63z"/><path fill="#3b82f6" fill-opacity=".113" d="M88.148 122.407h8.63v8.63h-8.63z"/><path fill="#3b82f6" fill-opacity=".112" d="M88.148 132.037h8.63v8.63h-8.63z"/><path fill="#3b82f6" fill-opacity=".114" d="M88.148 141.667h8.63v8.63h-8.63z"/><path fill="#3b82f6" fill-opacity=".12" d="M97.778 55h8.63v8.63h-8.63z"/><path fill="#3b82f6" fill-opacity=".115" d="M97.778 64.63h8.63v8.63h-8.63z"/><path fill="#3b82f6" fill-opacity=".12" d="M97.778 74.259h8.63v8.63h-8.63z"/><path fill="#3b82f6" fill-opacity=".117" d="M97.778 83.889h8.63v8.63h-8.63z"/><path fill="#3b82f6" fill-opacity=".112" d="M97.778 93.519h8.63v8.63h-8.63z"/><path fill="#3b82f6" fill-opacity=".114" d="M97.778 103.148h8.63v8.63h-8.63zm0 9.63h8.63v8.63h-8.63z"/><path fill="#3b82f6" fill-opacity=".117" d="M97.778 122.407h8.63v8.63h-8.63zm0 9.63h8.63v8.63h-8.63zm0 9.63h8.63v8.63h-8.63zM107.407 55h8.63v8.63h-8.63z"/><path fill="#3b82f6" fill-opacity=".119" d="M107.407 64.63h8.63v8.63h-8.63z"/><path fill="#3b82f6" fill-opacity=".114" d="M107.407 74.259h8.63v8.63h-8.63z"/><path fill="#3b82f6" fill-opacity=".112" d="M107.407 83.889h8.63v8.63h-8.63z"/><path fill="#3b82f6" fill-opacity=".111" d="M107.407 93.519h8.63v8.63h-8.63z"/><path fill="#3b82f6" fill-opacity=".114" d="M107.407 103.148h8.63v8.63h-8.63z"/><path fill="#3b82f6" fill-opacity=".111" d="M107.407 112.778h8.63v8.63h-8.63zm0 9.629h8.63v8.63h-8.63zm0 9.63h8.63v8.63h-8.63z"/><path fill="#3b82f6" fill-opacity=".116" d="M107.407 141.667h8.63v8.63h-8.63z"/><path fill="#3b82f6" fill-opacity=".111" d="M117.037 55h8.63v8.63h-8.63zm0 9.63h8.63v8.63h-8.63zm0 9.629h8.63v8.63h-8.63zm0 9.63h8.63v8.63h-8.63z"/><path fill="#3b82f6" fill-opacity=".112" d="M117.037 93.519h8.63v8.63h-8.63z"/><path fill="#3b82f6" fill-opacity=".111" d="M117.037 103.148h8.63v8.63h-8.63z"/><path fill="#3b82f6" fill-opacity=".113" d="M117.037 112.778h8.63v8.63h-8.63z"/><path fill="#3b82f6" fill-opacity=".111" d="M117.037 122.407h8.63v8.63h-8.63zm0 9.63h8.63v8.63h-8.63zm0 9.63h8.63v8.63h-8.63zM126.667 55h8.63v8.63h-8.63zm0 9.63h8.63v8.63h-8.63zm0 9.629h8.63v8.63h-8.63zm0 9.63h8.63v8.63h-8.63z"/><path fill="#3b82f6" fill-opacity=".115" d="M126.667 93.519h8.63v8.63h-8.63z"/><path fill="#3b82f6" fill-opacity=".118" d="M126.667 103.148h8.63v8.63h-8.63z"/><path fill="#3b82f6" fill-opacity=".114" d="M126.667 112.778h8.63v8.63h-8.63z"/><path fill="#3b82f6" fill-opacity=".112" d="M126.667 122.407h8.63v8.63h-8.63z"/><path fill="#3b82f6" fill-opacity=".113" d="M126.667 132.037h8.63v8.63h-8.63z"/><path fill="#3b82f6" fill-opacity=".11" d="M126.667 141.667h8.63v8.63h-8.63z"/><path fill="#3b82f6" fill-opacity=".111" d="M136.296 55h8.63v8.63h-8.63zm0 9.63h8.63v8.63h-8.63zm0 9.629h8.63v8.63h-8.63zm0 9.63h8.63v8.63h-8.63zm0 9.63h8.63v8.63h-8.63zm0 9.629h8.63v8.63h-8.63zm0 9.63h8.63v8.63h-8.63zm0 9.629h8.63v8.63h-8.63zm0 9.63h8.63v8.63h-8.63z"/><path fill="#3b82f6" fill-opacity=".117" d="M136.296 141.667h8.63v8.63h-8.63z"/><path fill="#3b82f6" fill-opacity=".122" d="M145.926 55h8.63v8.63h-8.63z"/><path fill="#3b82f6" fill-opacity=".114" d="M145.926 64.63h8.63v8.63h-8.63z"/><path fill="#3b82f6" fill-opacity=".112" d="M145.926 74.259h8.63v8.63h-8.63z"/><path fill="#3b82f6" fill-opacity=".111" d="M145.926 83.889h8.63v8.63h-8.63z"/><path fill="#3b82f6" fill-opacity=".114" d="M145.926 93.519h8.63v8.63h-8.63z"/><path fill="#3b82f6" fill-opacity=".122" d="M145.926 103.148h8.63v8.63h-8.63z"/><path fill="#3b82f6" fill-opacity=".113" d="M145.926 112.778h8.63v8.63h-8.63z"/><path fill="#3b82f6" fill-opacity=".108" d="M145.926 122.407h8.63v8.63h-8.63z"/><path fill="#3b82f6" fill-opacity=".112" d="M145.926 132.037h8.63v8.63h-8.63z"/><path fill="#3b82f6" fill-opacity=".113" d="M145.926 141.667h8.63v8.63h-8.63z"/><path fill="#3b82f6" fill-opacity=".112" d="M155.556 55h8.63v8.63h-8.63z"/><path fill="#3b82f6" fill-opacity=".113" d="M155.556 64.63h8.63v8.63h-8.63z"/><path fill="#3b82f6" fill-opacity=".101" d="M155.556 74.259h8.63v8.63h-8.63z"/><path fill="#3b82f6" fill-opacity=".106" d="M155.556 83.889h8.63v8.63h-8.63z"/><path fill="#3b82f6" fill-opacity=".1" d="M155.556 93.519h8.63v8.63h-8.63zm0 9.629h8.63v8.63h-8.63z"/><path fill="#3b82f6" fill-opacity=".107" d="M155.556 112.778h8.63v8.63h-8.63z"/><path fill="#3b82f6" fill-opacity=".102" d="M155.556 122.407h8.63v8.63h-8.63z"/><path fill="#3b82f6" fill-opacity=".1" d="M155.556 132.037h8.63v8.63h-8.63zm0 9.63h8.63v8.63h-8.63zM165.185 55h8.63v8.63h-8.63z"/><path fill="#3b82f6" fill-opacity=".101" d="M165.185 64.63h8.63v8.63h-8.63z"/><path fill="#3b82f6" fill-opacity=".105" d="M165.185 74.259h8.63v8.63h-8.63z"/><path fill="#3b82f6" fill-opacity=".114" d="M165.185 83.889h8.63v8.63h-8.63z"/><path fill="#3b82f6" fill-opacity=".101" d="M165.185 93.519h8.63v8.63h-8.63z"/><path fill="#3b82f6" fill-opacity=".1" d="M165.185 103.148h8.63v8.63h-8.63zm0 9.63h8.63v8.63h-8.63zm0 9.629h8.63v8.63h-8.63zm0 9.63h8.63v8.63h-8.63zm0 9.63h8.63v8.63h-8.63zM174.815 55h8.63v8.63h-8.63z"/><path fill="#3b82f6" fill-opacity=".101" d="M174.815 64.63h8.63v8.63h-8.63z"/><path fill="#3b82f6" fill-opacity=".1" d="M174.815 74.259h8.63v8.63h-8.63z"/><path fill="#3b82f6" fill-opacity=".101" d="M174.815 83.889h8.63v8.63h-8.63zm0 9.63h8.63v8.63h-8.63z"/><path fill="#3b82f6" fill-opacity=".1" d="M174.815 103.148h8.63v8.63h-8.63z"/><path fill="#3b82f6" fill-opacity=".101" d="M174.815 112.778h8.63v8.63h-8.63z"/><path fill="#3b82f6" fill-opacity=".1" d="M174.815 122.407h8.63v8.63h-8.63zm0 9.63h8.63v8.63h-8.63zm0 9.63h8.63v8.63h-8.63z"/><path fill="#3b82f6" fill-opacity=".101" d="M184.444 55h8.63v8.63h-8.63z"/><path fill="#3b82f6" fill-opacity=".1" d="M184.444 64.63h8.63v8.63h-8.63zm0 9.629h8.63v8.63h-8.63zm0 9.63h8.63v8.63h-8.63z"/><path fill="#3b82f6" fill-opacity=".114" d="M184.444 93.519h8.63v8.63h-8.63z"/><path fill="#3b82f6" fill-opacity=".106" d="M184.444 103.148h8.63v8.63h-8.63z"/><path fill="#3b82f6" fill-opacity=".1" d="M184.444 112.778h8.63v8.63h-8.63zm0 9.629h8.63v8.63h-8.63zm0 9.63h8.63v8.63h-8.63zm0 9.63h8.63v8.63h-8.63zM194.074 55h8.63v8.63h-8.63zm0 9.63h8.63v8.63h-8.63z"/><path fill="#3b82f6" fill-opacity=".102" d="M194.074 74.259h8.63v8.63h-8.63zm0 9.63h8.63v8.63h-8.63z"/><path fill="#3b82f6" fill-opacity=".1" d="M194.074 93.519h8.63v8.63h-8.63z"/><path fill="#3b82f6" fill-opacity=".108" d="M194.074 103.148h8.63v8.63h-8.63z"/><path fill="#3b82f6" fill-opacity=".1" d="M194.074 112.778h8.63v8.63h-8.63zm0 9.629h8.63v8.63h-8.63z"/><path fill="#3b82f6" fill-opacity=".102" d="M194.074 132.037h8.63v8.63h-8.63z"/><path fill="#3b82f6" fill-opacity=".103" d="M194.074 141.667h8.63v8.63h-8.63z"/><path fill="#3b82f6" fill-opacity=".102" d="M203.704 55h8.63v8.63h-8.63z"/><path fill="#3b82f6" fill-opacity=".1" d="M203.704 64.63h8.63v8.63h-8.63zm0 9.629h8.63v8.63h-8.63zm0 9.63h8.63v8.63h-8.63zm0 9.63h8.63v8.63h-8.63zm0 9.629h8.63v8.63h-8.63zm0 9.63h8.63v8.63h-8.63zm0 9.629h8.63v8.63h-8.63zm0 9.63h8.63v8.63h-8.63z"/><path fill="#3b82f6" fill-opacity=".101" d="M203.704 141.667h8.63v8.63h-8.63z"/><path fill="#3b82f6" fill-opacity=".1" d="M213.333 55h8.63v8.63h-8.63zm0 9.63h8.63v8.63h-8.63zm0 9.629h8.63v8.63h-8.63zm0 9.63h8.63v8.63h-8.63zm0 9.63h8.63v8.63h-8.63zm0 9.629h8.63v8.63h-8.63zm0 9.63h8.63v8.63h-8.63zm0 9.629h8.63v8.63h-8.63zm0 9.63h8.63v8.63h-8.63zm0 9.63h8.63v8.63h-8.63zM222.963 55h8.63v8.63h-8.63zm0 9.63h8.63v8.63h-8.63zm0 9.629h8.63v8.63h-8.63zm0 9.63h8.63v8.63h-8.63zm0 9.63h8.63v8.63h-8.63zm0 9.629h8.63v8.63h-8.63zm0 9.63h8.63v8.63h-8.63zm0 9.629h8.63v8.63h-8.63zm0 9.63h8.63v8.63h-8.63zm0 9.63h8.63v8.63h-8.63zM232.593 55h8.63v8.63h-8.63zm0 9.63h8.63v8.63h-8.63zm0 9.629h8.63v8.63h-8.63zm0 9.63h8.63v8.63h-8.63zm0 9.63h8.63v8.63h-8.63zm0 9.629h8.63v8.63h-8.63zm0 9.63h8.63v8.63h-8.63zm0 9.629h8.63v8.63h-8.63zm0 9.63h8.63v8.63h-8.63zm0 9.63h8.63v8.63h-8.63zM242.222 55h8.63v8.63h-8.63zm0 9.63h8.63v8.63h-8.63zm0 9.629h8.63v8.63h-8.63zm0 9.63h8.63v8.63h-8.63zm0 9.63h8.63v8.63h-8.63zm0 9.629h8.63v8.63h-8.63zm0 9.63h8.63v8.63h-8.63zm0 9.629h8.63v8.63h-8.63zm0 9.63h8.63v8.63h-8.63zm0 9.63h8.63v8.63h-8.63zM251.852 55h8.63v8.63h-8.63zm0 9.63h8.63v8.63h-8.63zm0 9.629h8.63v8.63h-8.63zm0 9.63h8.63v8.63h-8.63zm0 9.63h8.63v8.63h-8.63z"/><path fill="#3b82f6" fill-opacity=".101" d="M251.852 103.148h8.63v8.63h-8.63z"/><path fill="#3b82f6" fill-opacity=".1" d="M251.852 112.778h8.63v8.63h-8.63zm0 9.629h8.63v8.63h-8.63zm0 9.63h8.63v8.63h-8.63zm0 9.63h8.63v8.63h-8.63zM261.481 55h8.63v8.63h-8.63zm0 9.63h8.63v8.63h-8.63zm0 9.629h8.63v8.63h-8.63zm0 9.63h8.63v8.63h-8.63zm0 9.63h8.63v8.63h-8.63zm0 9.629h8.63v8.63h-8.63zm0 9.63h8.63v8.63h-8.63zm0 9.629h8.63v8.63h-8.63zm0 9.63h8.63v8.63h-8.63zm0 9.63h8.63v8.63h-8.63zM271.111 55h8.63v8.63h-8.63zm0 9.63h8.63v8.63h-8.63zm0 9.629h8.63v8.63h-8.63zm0 9.63h8.63v8.63h-8.63zm0 9.63h8.63v8.63h-8.63zm0 9.629h8.63v8.63h-8.63zm0 9.63h8.63v8.63h-8.63zm0 9.629h8.63v8.63h-8.63zm0 9.63h8.63v8.63h-8.63zm0 9.63h8.63v8.63h-8.63zM280.741 55h8.63v8.63h-8.63zm0 9.63h8.63v8.63h-8.63zm0 9.629h8.63v8.63h-8.63zm0 9.63h8.63v8.63h-8.63zm0 9.63h8.63v8.63h-8.63zm0 9.629h8.63v8.63h-8.63zm0 9.63h8.63v8.63h-8.63zm0 9.629h8.63v8.63h-8.63zm0 9.63h8.63v8.63h-8.63zm0 9.63h8.63v8.63h-8.63zM290.37 55H299v8.63h-8.63zm0 9.63H299v8.63h-8.63z"/><path fill="#3b82f6" fill-opacity=".101" d="M290.37 74.259H299v8.63h-8.63zm0 9.63H299v8.63h-8.63z"/><path fill="#3b82f6" fill-opacity=".1" d="M290.37 93.519H299v8.63h-8.63zm0 9.629H299v8.63h-8.63zm0 9.63H299v8.63h-8.63zm0 9.629H299v8.63h-8.63zm0 9.63H299v8.63h-8.63zm0 9.63H299v8.63h-8.63zM300 55h8.63v8.63H300zm0 9.63h8.63v8.63H300zm0 9.629h8.63v8.63H300zm0 9.63h8.63v8.63H300zm0 9.63h8.63v8.63H300zm0 9.629h8.63v8.63H300zm0 9.63h8.63v8.63H300zm0 9.629h8.63v8.63H300zm0 9.63h8.63v8.63H300zm0 9.63h8.63v8.63H300zM309.63 55h8.63v8.63h-8.63zm0 9.63h8.63v8.63h-8.63zm0 9.629h8.63v8.63h-8.63z"/><path fill="#3b82f6" fill-opacity=".131" d="M309.63 83.889h8.63v8.63h-8.63z"/><path fill="#3b82f6" fill-opacity=".118" d="M309.63 93.519h8.63v8.63h-8.63z"/><path fill="#3b82f6" fill-opacity=".1" d="M309.63 103.148h8.63v8.63h-8.63zm0 9.63h8.63v8.63h-8.63zm0 9.629h8.63v8.63h-8.63zm0 9.63h8.63v8.63h-8.63zm0 9.63h8.63v8.63h-8.63zM319.259 55h8.63v8.63h-8.63zm0 9.63h8.63v8.63h-8.63zm0 9.629h8.63v8.63h-8.63zm0 9.63h8.63v8.63h-8.63zm0 9.63h8.63v8.63h-8.63zm0 9.629h8.63v8.63h-8.63zm0 9.63h8.63v8.63h-8.63zm0 9.629h8.63v8.63h-8.63zm0 9.63h8.63v8.63h-8.63zm0 9.63h8.63v8.63h-8.63zM328.889 55h8.63v8.63h-8.63zm0 9.63h8.63v8.63h-8.63zm0 9.629h8.63v8.63h-8.63zm0 9.63h8.63v8.63h-8.63zm0 9.63h8.63v8.63h-8.63zm0 9.629h8.63v8.63h-8.63zm0 9.63h8.63v8.63h-8.63zm0 9.629h8.63v8.63h-8.63zm0 9.63h8.63v8.63h-8.63zm0 9.63h8.63v8.63h-8.63zM338.519 55h8.63v8.63h-8.63zm0 9.63h8.63v8.63h-8.63zm0 9.629h8.63v8.63h-8.63zm0 9.63h8.63v8.63h-8.63zm0 9.63h8.63v8.63h-8.63zm0 9.629h8.63v8.63h-8.63zm0 9.63h8.63v8.63h-8.63zm0 9.629h8.63v8.63h-8.63zm0 9.63h8.63v8.63h-8.63zm0 9.63h8.63v8.63h-8.63zM348.148 55h8.63v8.63h-8.63zm0 9.63h8.63v8.63h-8.63zm0 9.629h8.63v8.63h-8.63zm0 9.63h8.63v8.63h-8.63zm0 9.63h8.63v8.63h-8.63zm0 9.629h8.63v8.63h-8.63zm0 9.63h8.63v8.63h-8.63zm0 9.629h8.63v8.63h-8.63zm0 9.63h8.63v8.63h-8.63zm0 9.63h8.63v8.63h-8.63zM357.778 55h8.63v8.63h-8.63zm0 9.63h8.63v8.63h-8.63zm0 9.629h8.63v8.63h-8.63zm0 9.63h8.63v8.63h-8.63zm0 9.63h8.63v8.63h-8.63zm0 9.629h8.63v8.63h-8.63zm0 9.63h8.63v8.63h-8.63zm0 9.629h8.63v8.63h-8.63zm0 9.63h8.63v8.63h-8.63zm0 9.63h8.63v8.63h-8.63zM367.407 55h8.63v8.63h-8.63zm0 9.63h8.63v8.63h-8.63zm0 9.629h8.63v8.63h-8.63zm0 9.63h8.63v8.63h-8.63zm0 9.63h8.63v8.63h-8.63zm0 9.629h8.63v8.63h-8.63zm0 9.63h8.63v8.63h-8.63zm0 9.629h8.63v8.63h-8.63zm0 9.63h8.63v8.63h-8.63zm0 9.63h8.63v8.63h-8.63zM377.037 55h8.63v8.63h-8.63zm0 9.63h8.63v8.63h-8.63zm0 9.629h8.63v8.63h-8.63zm0 9.63h8.63v8.63h-8.63zm0 9.63h8.63v8.63h-8.63zm0 9.629h8.63v8.63h-8.63zm0 9.63h8.63v8.63h-8.63z"/><path fill="#3b82f6" fill-opacity=".101" d="M377.037 122.407h8.63v8.63h-8.63z"/><path fill="#3b82f6" fill-opacity=".1" d="M377.037 132.037h8.63v8.63h-8.63zm0 9.63h8.63v8.63h-8.63zM386.667 55h8.63v8.63h-8.63zm0 9.63h8.63v8.63h-8.63zm0 9.629h8.63v8.63h-8.63zm0 9.63h8.63v8.63h-8.63zm0 9.63h8.63v8.63h-8.63zm0 9.629h8.63v8.63h-8.63zm0 9.63h8.63v8.63h-8.63zm0 9.629h8.63v8.63h-8.63z"/><path fill="#3b82f6" fill-opacity=".101" d="M386.667 132.037h8.63v8.63h-8.63z"/><path fill="#3b82f6" fill-opacity=".1" d="M386.667 141.667h8.63v8.63h-8.63zM396.296 55h8.63v8.63h-8.63zm0 9.63h8.63v8.63h-8.63zm0 9.629h8.63v8.63h-8.63zm0 9.63h8.63v8.63h-8.63zm0 9.63h8.63v8.63h-8.63zm0 9.629h8.63v8.63h-8.63zm0 9.63h8.63v8.63h-8.63zm0 9.629h8.63v8.63h-8.63zm0 9.63h8.63v8.63h-8.63zm0 9.63h8.63v8.63h-8.63zM405.926 55h8.63v8.63h-8.63zm0 9.63h8.63v8.63h-8.63zm0 9.629h8.63v8.63h-8.63zm0 9.63h8.63v8.63h-8.63zm0 9.63h8.63v8.63h-8.63zm0 9.629h8.63v8.63h-8.63zm0 9.63h8.63v8.63h-8.63zm0 9.629h8.63v8.63h-8.63zm0 9.63h8.63v8.63h-8.63zm0 9.63h8.63v8.63h-8.63zM415.556 55h8.63v8.63h-8.63zm0 9.63h8.63v8.63h-8.63zm0 9.629h8.63v8.63h-8.63zm0 9.63h8.63v8.63h-8.63zm0 9.63h8.63v8.63h-8.63zm0 9.629h8.63v8.63h-8.63zm0 9.63h8.63v8.63h-8.63zm0 9.629h8.63v8.63h-8.63zm0 9.63h8.63v8.63h-8.63zm0 9.63h8.63v8.63h-8.63zM425.185 55h8.63v8.63h-8.63zm0 9.63h8.63v8.63h-8.63zm0 9.629h8.63v8.63h-8.63zm0 9.63h8.63v8.63h-8.63zm0 9.63h8.63v8.63h-8.63zm0 9.629h8.63v8.63h-8.63zm0 9.63h8.63v8.63h-8.63zm0 9.629h8.63v8.63h-8.63zm0 9.63h8.63v8.63h-8.63z"/><path fill="#3b82f6" fill-opacity=".102" d="M425.185 141.667h8.63v8.63h-8.63z"/><path fill="#3b82f6" fill-opacity=".1" d="M434.815 55h8.63v8.63h-8.63zm0 9.63h8.63v8.63h-8.63zm0 9.629h8.63v8.63h-8.63zm0 9.63h8.63v8.63h-8.63zm0 9.63h8.63v8.63h-8.63zm0 9.629h8.63v8.63h-8.63zm0 9.63h8.63v8.63h-8.63zm0 9.629h8.63v8.63h-8.63zm0 9.63h8.63v8.63h-8.63z"/><path fill="#3b82f6" fill-opacity=".101" d="M434.815 141.667h8.63v8.63h-8.63z"/><path fill="#3b82f6" fill-opacity=".1" d="M444.444 55h8.63v8.63h-8.63zm0 9.63h8.63v8.63h-8.63zm0 9.629h8.63v8.63h-8.63zm0 9.63h8.63v8.63h-8.63zm0 9.63h8.63v8.63h-8.63zm0 9.629h8.63v8.63h-8.63zm0 9.63h8.63v8.63h-8.63zm0 9.629h8.63v8.63h-8.63zm0 9.63h8.63v8.63h-8.63zm0 9.63h8.63v8.63h-8.63zM454.074 55h8.63v8.63h-8.63zm0 9.63h8.63v8.63h-8.63zm0 9.629h8.63v8.63h-8.63zm0 9.63h8.63v8.63h-8.63zm0 9.63h8.63v8.63h-8.63zm0 9.629h8.63v8.63h-8.63zm0 9.63h8.63v8.63h-8.63zm0 9.629h8.63v8.63h-8.63zm0 9.63h8.63v8.63h-8.63zm0 9.63h8.63v8.63h-8.63zM463.704 55h8.63v8.63h-8.63zm0 9.63h8.63v8.63h-8.63z"/><path fill="#3b82f6" fill-opacity=".101" d="M463.704 74.259h8.63v8.63h-8.63z"/><path fill="#3b82f6" fill-opacity=".141" d="M463.704 83.889h8.63v8.63h-8.63z"/><path fill="#3b82f6" fill-opacity=".105" d="M463.704 93.519h8.63v8.63h-8.63z"/><path fill="#3b82f6" fill-opacity=".1" d="M463.704 103.148h8.63v8.63h-8.63zm0 9.63h8.63v8.63h-8.63zm0 9.629h8.63v8.63h-8.63zm0 9.63h8.63v8.63h-8.63zm0 9.63h8.63v8.63h-8.63zM473.333 55h8.63v8.63h-8.63zm0 9.63h8.63v8.63h-8.63zm0 9.629h8.63v8.63h-8.63zm0 9.63h8.63v8.63h-8.63zm0 9.63h8.63v8.63h-8.63zm0 9.629h8.63v8.63h-8.63zm0 9.63h8.63v8.63h-8.63zm0 9.629h8.63v8.63h-8.63zm0 9.63h8.63v8.63h-8.63zm0 9.63h8.63v8.63h-8.63zM482.963 55h8.63v8.63h-8.63zm0 9.63h8.63v8.63h-8.63zm0 9.629h8.63v8.63h-8.63zm0 9.63h8.63v8.63h-8.63zm0 9.63h8.63v8.63h-8.63zm0 9.629h8.63v8.63h-8.63zm0 9.63h8.63v8.63h-8.63zm0 9.629h8.63v8.63h-8.63zm0 9.63h8.63v8.63h-8.63zm0 9.63h8.63v8.63h-8.63zM492.593 55h8.63v8.63h-8.63zm0 9.63h8.63v8.63h-8.63zm0 9.629h8.63v8.63h-8.63zm0 9.63h8.63v8.63h-8.63zm0 9.63h8.63v8.63h-8.63zm0 9.629h8.63v8.63h-8.63zm0 9.63h8.63v8.63h-8.63zm0 9.629h8.63v8.63h-8.63zm0 9.63h8.63v8.63h-8.63zm0 9.63h8.63v8.63h-8.63zM502.222 55h8.63v8.63h-8.63zm0 9.63h8.63v8.63h-8.63zm0 9.629h8.63v8.63h-8.63zm0 9.63h8.63v8.63h-8.63zm0 9.63h8.63v8.63h-8.63zm0 9.629h8.63v8.63h-8.63zm0 9.63h8.63v8.63h-8.63zm0 9.629h8.63v8.63h-8.63zm0 9.63h8.63v8.63h-8.63zm0 9.63h8.63v8.63h-8.63zM511.852 55h8.63v8.63h-8.63zm0 9.63h8.63v8.63h-8.63zm0 9.629h8.63v8.63h-8.63zm0 9.63h8.63v8.63h-8.63z"/><path fill="#3b82f6" fill-opacity=".101" d="M511.852 93.519h8.63v8.63h-8.63z"/><path fill="#3b82f6" fill-opacity=".1" d="M511.852 103.148h8.63v8.63h-8.63zm0 9.63h8.63v8.63h-8.63zm0 9.629h8.63v8.63h-8.63zm0 9.63h8.63v8.63h-8.63zm0 9.63h8.63v8.63h-8.63zM521.481 55h8.63v8.63h-8.63zm0 9.63h8.63v8.63h-8.63zm0 9.629h8.63v8.63h-8.63zm0 9.63h8.63v8.63h-8.63zm0 9.63h8.63v8.63h-8.63zm0 9.629h8.63v8.63h-8.63zm0 9.63h8.63v8.63h-8.63zm0 9.629h8.63v8.63h-8.63zm0 9.63h8.63v8.63h-8.63zm0 9.63h8.63v8.63h-8.63zM531.111 55h8.63v8.63h-8.63zm0 9.63h8.63v8.63h-8.63zm0 9.629h8.63v8.63h-8.63zm0 9.63h8.63v8.63h-8.63zm0 9.63h8.63v8.63h-8.63zm0 9.629h8.63v8.63h-8.63zm0 9.63h8.63v8.63h-8.63zm0 9.629h8.63v8.63h-8.63zm0 9.63h8.63v8.63h-8.63zm0 9.63h8.63v8.63h-8.63zM540.741 55h8.63v8.63h-8.63zm0 9.63h8.63v8.63h-8.63zm0 9.629h8.63v8.63h-8.63zm0 9.63h8.63v8.63h-8.63zm0 9.63h8.63v8.63h-8.63zm0 9.629h8.63v8.63h-8.63zm0 9.63h8.63v8.63h-8.63zm0 9.629h8.63v8.63h-8.63zm0 9.63h8.63v8.63h-8.63zm0 9.63h8.63v8.63h-8.63zM550.37 55H559v8.63h-8.63zm0 9.63H559v8.63h-8.63zm0 9.629H559v8.63h-8.63zm0 9.63H559v8.63h-8.63zm0 9.63H559v8.63h-8.63zm0 9.629H559v8.63h-8.63zm0 9.63H559v8.63h-8.63zm0 9.629H559v8.63h-8.63z"/></svg>