<svg xmlns="http://www.w3.org/2000/svg" viewBox="0 0 600 380"><style>.l{font:500 12px Inter,sans-serif;fill:#64748b}.bl{font:500 11px Inter,sans-serif;fill:#94a3b8}.grid{stroke:#f1f5f9;stroke-width:1}.shadow{filter:drop-shadow(0 2px 4px rgba(0,0,0,.05))}</style><defs><linearGradient id="gP" x1="0%" x2="100%" y1="0%" y2="0%"><stop offset="0%" stop-color="#3b82f6"/><stop offset="100%" stop-color="#60a5fa"/></linearGradient><linearGradient id="gS" x1="0%" x2="100%" y1="0%" y2="0%"><stop offset="0%" stop-color="#10b981"/><stop offset="100%" stop-color="#34d399"/></linearGradient></defs><rect width="100%" height="100%" fill="#fff"/><text x="70" y="40" style="font:600 18px Inter,system-ui,sans-serif;fill:#1e293b">精度 (Epsilon) 灵敏度曲线 (实测数据)</text><path d="M70 310h460" class="grid"/><text x="60" y="314" class="bl" text-anchor="end">0</text><path d="M70 250h460" class="grid"/><text x="60" y="254" class="bl" text-anchor="end">25</text><path d="M70 190h460" class="grid"/><text x="60" y="194" class="bl" text-anchor="end">50</text><path d="M70 130h460" class="grid"/><text x="60" y="134" class="bl" text-anchor="end">75</text><path d="M70 70h460" class="grid"/><text x="60" y="74" class="bl" text-anchor="end">100</text><text x="70" y="330" class="bl" text-anchor="middle">1</text><text x="162" y="330" class="bl" text-anchor="middle">4</text><text x="208" y="330" class="bl" text-anchor="middle">8</text><text x="254" y="330" class="bl" text-anchor="middle">16</text><text x="300" y="330" class="bl" text-anchor="middle">32</text><text x="346" y="330" class="bl" text-anchor="middle">64</text><text x="392" y="330" class="bl" text-anchor="middle">128</text><text x="438" y="330" class="bl" text-anchor="middle">256</text><text x="484" y="330" class="bl" text-anchor="middle">512</text><text x="530" y="330" class="bl" text-anchor="middle">1024</text><text x="300" y="365" class="l" text-anchor="middle">精度 (Epsilon)</text><text x="15" y="190" class="l" text-anchor="middle" transform="rotate(-90 15 190)">分段数量 (相对于 ε=1)</text><circle cx="70" cy="70" r="4" fill="#3b82f6" class="shadow"/><circle cx="162" cy="82" r="4" fill="#3b82f6" class="shadow"/><circle cx="208" cy="91.6" r="4" fill="#3b82f6" class="shadow"/><circle cx="254" cy="103.6" r="4" fill="#3b82f6" class="shadow"/><circle cx="300" cy="118" r="4" fill="#3b82f6" class="shadow"/><circle cx="346" cy="134.8" r="4" fill="#3b82f6" class="shadow"/><circle cx="392" cy="146.8" r="4" fill="#3b82f6" class="shadow"/><circle cx="438" cy="156.4" r="4" fill="#3b82f6" class="shadow"/><circle cx="484" cy="163.6" r="4" fill="#3b82f6" class="shadow"/><circle cx="530" cy="170.8" r="4" fill="#3b82f6" class="shadow"/><path fill="#3b82f6" fill-opacity=".1" d="M70 310V70l92 12 46 9.6 46 12 46 14.4 46 16.8 46 12 46 9.6 46 7.2 46 7.2V310Z"/><path fill="none" stroke="#3b82f6" stroke-linecap="round" stroke-linejoin="round" stroke-width="3" d="m70 70 92 12 46 9.6 46 12 46 14.4 46 16.8 46 12 46 9.6 46 7.2 46 7.2" class="shadow"/></svg>